<svg xmlns="http://www.w3.org/2000/svg" viewBox="0 0 1027 322.81"><defs><style>.cls-1{fill:#202020;}.cls-2{font-size:156.46px;}.cls-2,.cls-3{font-family:AlexBrush-Regular, Alex Brush;}.cls-3{font-size:156.46px;}.cls-4{fill:#f0dbc2;}.cls-5{fill:#f2b9b8;}.cls-6{fill:#f29c9b;}.cls-7{fill:#f0614a;}.cls-8{fill:#ea5242;}.cls-9{fill:#965735;}.cls-10{fill:#ebd3b7;}.cls-11{fill:#f2aeac;}.cls-12{fill:#f28685;}</style></defs><title>Bakingsociety2</title><g id="Layer_2" data-name="Layer 2"><path class="cls-1" d="M677,316.5c.21,0,.53-.21.3-.48l-.71.08Z" transform="translate(-69 -141.48)"/><path class="cls-1" d="M677,313.83a1.31,1.31,0,0,0-1.61.16c.76.05.56.27,1.44.3a.43.43,0,0,1-.15.71c.21,0,.13.55.59.53a1.14,1.14,0,0,0-.67-1.51C676.69,313.83,676.9,313.86,677,313.83Z" transform="translate(-69 -141.48)"/><path class="cls-1" d="M657.07,285.37l.1.21A.5.5,0,0,0,657.07,285.37Z" transform="translate(-69 -141.48)"/><path class="cls-1" d="M640.83,271c.14.08.24.07.28,0C641,271,640.83,270.91,640.83,271Z" transform="translate(-69 -141.48)"/><path class="cls-1" d="M638.17,268.26l.16.16C638.3,268.32,638.24,268.25,638.17,268.26Z" transform="translate(-69 -141.48)"/><path class="cls-1" d="M657.07,285.37l-.26-.56C656.63,284.93,656.91,285.13,657.07,285.37Z" transform="translate(-69 -141.48)"/><path class="cls-1" d="M673.29,310.49a.71.71,0,0,0,.3.18l-.21-.22Z" transform="translate(-69 -141.48)"/><path class="cls-1" d="M663.93,292.07l.12.14a1.28,1.28,0,0,0,.3-.07Z" transform="translate(-69 -141.48)"/><path class="cls-1" d="M668.62,297.76c-.08-.15-.57.14-.8.24a.55.55,0,0,1,.52.06A1.38,1.38,0,0,0,668.62,297.76Z" transform="translate(-69 -141.48)"/><path class="cls-1" d="M674.39,307.92l.18.13C674.52,308,674.45,308,674.39,307.92Z" transform="translate(-69 -141.48)"/><path class="cls-1" d="M660.53,288a.47.47,0,0,0,.1-.18A.35.35,0,0,0,660.53,288Z" transform="translate(-69 -141.48)"/><path class="cls-1" d="M489.65,310.27l-.09,0C489.59,310.28,489.62,310.31,489.65,310.27Z" transform="translate(-69 -141.48)"/><path class="cls-1" d="M483.37,316.44l0-.12-.27-.15Z" transform="translate(-69 -141.48)"/><path class="cls-1" d="M632.73,264l0,0C632.94,264.08,632.84,264,632.73,264Z" transform="translate(-69 -141.48)"/><path class="cls-1" d="M571.9,250.61c.75.43-1.09.76,0,1.21C571.8,251.61,572.82,250.85,571.9,250.61Z" transform="translate(-69 -141.48)"/><path class="cls-1" d="M673.25,310.29a2.07,2.07,0,0,1-.15-.25A.68.68,0,0,0,673.25,310.29Z" transform="translate(-69 -141.48)"/><path class="cls-1" d="M571.92,251.82h0l.11,0Z" transform="translate(-69 -141.48)"/><path class="cls-1" d="M618.33,257.35a.56.56,0,0,0,.06.29A.48.48,0,0,0,618.33,257.35Z" transform="translate(-69 -141.48)"/><path class="cls-1" d="M628.65,263l-.21-.21A1,1,0,0,0,628.65,263Z" transform="translate(-69 -141.48)"/><path class="cls-1" d="M612.32,256c-.14-.09-.17-.18-.4-.17a.59.59,0,0,0,0,.08C612.06,255.85,612.17,255.85,612.32,256Z" transform="translate(-69 -141.48)"/><path class="cls-1" d="M606.24,254.19a1,1,0,0,0,.08.14l.2,0Z" transform="translate(-69 -141.48)"/><path class="cls-1" d="M499.8,294.78a1.8,1.8,0,0,1-.57-.1C499.6,294.86,499.15,295.64,499.8,294.78Z" transform="translate(-69 -141.48)"/><path class="cls-1" d="M673.56,310.33a.3.3,0,0,1-.31,0l.13.16A.23.23,0,0,0,673.56,310.33Z" transform="translate(-69 -141.48)"/><path class="cls-1" d="M610.68,260.12l-.89-.37A4.33,4.33,0,0,0,610.68,260.12Z" transform="translate(-69 -141.48)"/><path class="cls-1" d="M533.19,266.87,533,267A.23.23,0,0,0,533.19,266.87Z" transform="translate(-69 -141.48)"/><path class="cls-1" d="M607,259a1.32,1.32,0,0,0-.42-.52.48.48,0,0,0-.15.11Z" transform="translate(-69 -141.48)"/><path class="cls-1" d="M499.22,294.68h0Z" transform="translate(-69 -141.48)"/><path class="cls-1" d="M496.46,300.58c.54-.74-.34-.77-.57-1.18.46-1,.73-.1,1.25-.18.24-.68,0-1.52.32-1.92.11,0,.21,0,.26.17,0-.93,1.34-1.7,1.29-2.82a.42.42,0,0,1,.21,0,2.27,2.27,0,0,1-.87-.53c.25-.33.13-.9.6-.72-.17.19,0,.33,0,.52l.11-.47c.79.13-.19.61.21.93.36-.8.55-1.94,1.11-2.32.61.33-.79,1.33.23,1l-.84.62c1.32.08-.44.42.89.6,1-.9.67-1.37,1.65-2.26-.1-.48-.49-.29-.59-.77.72-1.88,2.27,0,2.52-1.58-.09-.56-.62-1.25.38-1.66l.34.77c.93-.88-.31-1.3,1-1.92.05.38-.51.91-.31.83,1-.22.11-.75.57-1.24l.58.37a43.23,43.23,0,0,1,2.62-3.58c.08.21,0,.54.44.45a10.49,10.49,0,0,1,2.15-2.05,14,14,0,0,1,2.53-1.54l.17-.89c.13-.1.4,0,.34.21.7-.28-.21-.31-.09-.7.29-.29.63-.08.55.22.66-1.17,2.14-3.11,3.56-3.45l-.1.3c1-.44.23-1.64,1.35-1.77l-.09.19c2-1.07,3.73-3,5.66-3.17-.17-.88,2.11-.82,1.62-1.9,1.41-.16,1.2.21,2.94-.38.44-.2.26-1,.71-1.42l.31.53c.13-.32.25-.66.39-1l.74.45L533,267c-.22.07-.56,0-.61-.2a2.18,2.18,0,0,1,2.27-.31l1.61-1.4c.07.24-.2.48-.38.74.71-1.06.47.49,1.11-.48-.18-.06-.09-.36-.13-.48a4.24,4.24,0,0,0,2.35-.9l0,.45c1.45-.48,2.89-1.42,4.48-2.08a.51.51,0,0,1-.35-.94l.43.53c.16-.5-.58,0-.14-.75.63-.17.67.53.41.87l.64-.51c.11.16,0,.33,0,.57.16-.5,1.47.09,1.67-.69l.11.17c1.62-.54,2.28-1,3.6-1.47-.15-.54.41-.6.67-1.16.51-.08,1.08-.1,1.65-.16a8.53,8.53,0,0,0,1.78-.27c.78-.48.12-.52.42-.94.2.48,1.39.13.86.64a17.39,17.39,0,0,0,3.55-1.43c-.25-.16-.49-.19-.42-.39.32-.17.81,0,.81.27l-.07.07c1.94-1.2,5.07.61,6.54-.75l-.09.06c.55-.27,1.09-.58,1.65-.84.81,0-.43.43.2.69,1.77-1,3-.17,4.45-.89.66.7,1.71.56,2.81.36a5.56,5.56,0,0,1,3.09.16l-.11-.35c.41-.36.51.19.82.27,0-.28-.46-.31-.2-.51,3.54-.55,7.31.46,10.84,1.15,1.3.22.93-1.79,2.51-.75l-.55.59a13.54,13.54,0,0,1,4.07.17,15.6,15.6,0,0,0,4,.43c-.18.12-.22.32-.47.27.45.54,2,.44,2.08.06.39.13,0,.36.22.61.48.4,1.5-.29,1.68.24,0,.09-.19.12-.3.13.41-.15,1.62.44,1.42-.18.88.52,1.88.26,2.55.78.67-.47,1.54.73,1.94-.05-.32.85,1.43,1.22,2.16,1-.29.19.43.43.07.72.68.19,1.35.25,1.38-.23.87,1.47,2.78.09,3,1.64a34.72,34.72,0,0,1,5.9,1.37c-.43.8-1.95-.8-2.26.12,1.78.39,3.06.13,4.6,1.09.36.32-.4.22-.62.3,1.78.49,3.09,1.61,4.73,2,0,.07-.24.07-.42.05.29.13.58.47.75.09l-.33-.05c-.16-.77,1.71-.48,1.91-.72-1,.76,1.26,1-.22,1.91.22,0,.54,0,.64-.27.23.22.24.41-.19.52,1.09.38,1-.19,1.84.34-.1.17-.32.13-.53.28a2.21,2.21,0,0,1,2,.47c-.11.07-.11.26-.33.12,1.32.7,2.71.51,3.9,1.71-.88.46.32.55,0,1.21l.85.32-.08-.5c.62.45,1.5.4,1.9,1l-.65-.08,1.28.72-.51-.71c.87.14.48-.82,1.21-.05-.22-.06.63.47.69,1.07h0a1.5,1.5,0,0,1,1.27.58c0,.28-.6.59-.61.77.68-.27,1.56.95,2.34.74a.73.73,0,0,0-.48.42l.56-.2c.18.36.18.45-.06.66.78.75.32-1,1.07.17-.11,0-.12.06-.33,0,.88,1,2.15,1.32,2.89,2.3-.22.8-.91-.54-1,.21a23.13,23.13,0,0,0,2.3,1.34,8.61,8.61,0,0,1,2.08,1.55l-.18-.27c.89-.62.57,1.21,1.51,1.44-.2-.09-.6.24-.48.19.69.92,1.87,1.4,3.31,2.4l-.34,0a15.67,15.67,0,0,0,1.55,2c.35,0,.6.3.71-.16a3.69,3.69,0,0,0,2,2.58,3.53,3.53,0,0,1,1.9,2.36c-.15-.18-.55-.27-.42-.13.43.37.87.73,1.29,1.11.26-.4.07-.35.11-.86a1.52,1.52,0,0,1,1.09.55c-.72-.39-.56.48-.55.9.07-.14.26-.15.35-.26-.06,1.2.82-.48,1.16.8l-.23.1c.39.27.91.39,1.15.82-.29.5-.49-.22-.85,0,.44.52,1.63.43,1.59,1.25-.29-.13-.56-.46-.85-.6a1.56,1.56,0,0,0,.33,1.34l0,0,.48,1.08,0-.34c1.63-.16,1.24,1.24,2.67,1.62-1.37-.39-.51.15-1.05.44,0,.33.15.8-.06.8.71.15.21,1,1.23,1.16-.14.14.32.49-.15.67.53.48.18-.33.42-.43,1.19.51.78,2.56,2.4,3.35,1.06.92,1.73.78,2.69,1.68,0,.52-.79.08-.79.08a2.44,2.44,0,0,0,1,1.58c-.22,0-.27.16-.36.44.31.42.79-.06.89.67a2.77,2.77,0,0,1-.94,0c.46.42,1.1.75,1.55,1.22-.21.31-.63-.08-.93-.16.48.54,1.16,1.44,1.74,1.37l-.06-.49c.15.21-.34.34-.52.22a.55.55,0,0,1-.11-1l.33.33c.78-1-1.06-1.48-1.47-2.28l.91-.1-1.07-.45c.09-.28.41-.64.75-.32,0-.77-.54-.34-.45-1.06,0-.09.08-.09.13-.05l-.55-.41c.22,0,.44-.41.55,0-.21-1.23-1.52-1.23-1.22-1.94l.1.05c-1.12-1.18-.6.21-1.86-.39l.81-1.51-.6.22c-.07-.15-.21-.45,0-.54-.68-.27-.16.24-.68.17,0-1-1.47-1.63-.77-2.34-.54,0,.14.82-.61.32.71-.8-.7-.7-.75-1.56.57-.14.75.58.71-.28-1,.19-.69-1.25-1.2-1.64-.59.41-1-.89-1.87-1.54.23-.09-.86-1.77-1.29-2.67l.12-.05c-.69.32-1.21-.52-1.79-1a.81.81,0,0,1,1-.1l-.43-.51a1.1,1.1,0,0,1-.86-.34l.53-.23c-.62-.66-1.69-.93-2.18-2.05-.42.3-.46,1.64-1.51,1,.17-.22.5-.57.79-.41-.1-.05-.41-.12-.47-.36l.67.05c-.19-.53-.47.06-.72-.28.3-.26,0-.42.27-.58.1,0,.13.37.35.39a2,2,0,0,1-.39-1.32.45.45,0,0,1-.67.14c-.63-.64.14-.55-.07-1.07-.35,0-.53-.59-1-.2-.18-.19,0-.42,0-.6-.51-.15-1.58-1.5-1.66-.69l.06.11s0,0-.08,0h0c-1.46-.68-2-2.48-3.26-3.34l.13-.14c-.79-.47-1.55-1.28-2.32-1.4-.19-.18-.22-.69,0-.78-.61-.36-.81-.25-1.34-1.15.75.2,0-.4.7.28-.55-.73-.51-1.09-1.59-1.31.58-.17-.11-.93-.53-1.09l.25.68a4.8,4.8,0,0,1-1-.87l.61-.36c-.91-1.83-3.45-1-3.71-3-.67.07.59.88-.09,1-.6-.6-.74-1.87-.95-2-.72-1-1.45.12-2.27-.81,0,.29-.27.87-1.14.54-.63-.55-.27-1.41.28-1.25.18.1.21.22.16.28.27.08.63.21.5-.19l-.22.12c-.21-.43-1.18-1.09-.73-1.25-.66-.18-.45.16-.13.54-.71-.9-1.38-1-2.2-1.81.08.21.06.53-.08.43-1.22-1.14-.86,0-1.85-.54-.33-.65.66-.6-.44-1-.45-.58.21-.61.55-.62-1.1-.19-1.48-1.28-1.94-1.66l.57.12a2.36,2.36,0,0,1-.8-.35l0,.56c-.23-.23-.46-.37-.35-.54-.44.1-.2.81-1,.84-.24-.43-1.23-.44-1-1.06,1,.87.2-.62,1.22-.13a1.36,1.36,0,0,1-.69-.42c0-.09.11-.09.2-.08-.83-1.13-.87.33-2-.33.32-.23.06-.74-.17-.78.46.27-.07.64-.62.65-.61-.66-.9-.27-1.28-.51l.38.36c-.32.23-.66,0-1.23-.19.09-.27.56.07.43-.13-.86.25-1-1.24-2-1.28-.27-.41.26-.61,0-.93-1.12,0-.77-.95-1.92-1.06.08.56.17.48-.71.58.58.15,1.17.28,1.74.46-.44,0-.88.08-1.32.13.48.22,1.14.22,1.39.44-.65.1-.55,0-.5.49-.33-1-1.47-.24-2-1l.52-1.06c-.94-1-2.28-.42-3.7-1.3l.41.39c-.38.35-1-.32-1.52-.35.19-.34-.06-.6-.18-.92-.09.28-1.11-.49-1.54.2l-.5-.74c-1.18-.66-1.82.54-3,0,.5-.28.05-.74,1-.74-.4-.15-.73-.35-.83-.09-.15-.33-1.29.13-1.55-.35-.22.11-.41.49-.85.31a.24.24,0,0,1,.06-.18c-.06.18-.79,0-.52.57a3,3,0,0,0-2.19-1.25c-.87-.2-1.72-.36-2.14-1-.93-.13-2-.28-2.87-.42.08-.11,0-.19.19-.12-1-.61-.95,1-2.14.26-.52-.77.76-.18.4-.51.09-1.31-1.59-.19-2.33-1.07l.23,0c-.59-.55-1.73.19-2.81-.1a.25.25,0,0,0,0-.19,8.12,8.12,0,0,1-3.39.59c.4-.46.52-.2.39-.74-.49,0,0,.84-.93.86-.27-.32-.93-.65-1-1.21l.9.09c-.37-.76-1.16-.14-1.62-.3l.09-.31c-1.4,0-1.49.76-3,.58l.14.25c-.87.71-.65-.5-1.49,0l-.2-.8a17.5,17.5,0,0,1-2.87.8,8.16,8.16,0,0,1,2.42-1.14c-.54,0-1.82,0-2.11.36.22-.06.49-.25.7-.12a3.45,3.45,0,0,1-2.59.81c.21-1.54-2.74-.33-3.53-1.5a7,7,0,0,1-2.85.17l-1.51-.16a9.66,9.66,0,0,0-1.59.09c.87,1.11-.63.09-.4,1.3-.5.13-.7.13-.75,0l-1.6-.57c-.4-.32.46-.32.38-.59-1.13,0-.52-.47-1.3-.72.2.42-.32.66-1,.56l1,.47c-1.48.81-1.48-.91-3-.06.15-.16.29-.32.45-.46-.78.34-3,.51-3.6,1.61-.16-.12-.41-.41-.07-.56-2,.21-4.06,1.7-5.63,1.55l.08-.33c-.34.18-.49.71-1,.52,0-.12.08-.32-.09-.3s-.81.75-1.31.7l.31-.43c-1.94.09-2.61,1.5-4.06,2.1-.24-.84-1.74-.64-2.49-.54l0-.13c-2.13.61-3.34,1.86-5.12,2.87-1.51-.41-4.1,1.27-6.19,1.57.35,0,.23.64-.06.86-.52,0-1,1.09-1.22.33l.16-.06c-.65-.55-1.44.08-2.14.41l.35,1a4.59,4.59,0,0,0-3.34,1.16,9.91,9.91,0,0,1-1.4.88,1.49,1.49,0,0,1-1.25.16c-.29.48-.8.78-1.08,1.25l-.26-.5a15.85,15.85,0,0,0-3.2,1.81l.08-.51c-.83.45-.15,2-.85,2.46l-.68-.57c-1.32.94-3.1,1.28-4,2.82a.43.43,0,0,1,0-.52c-.64.42-2.78,1.25-1.85,2-.49-.63-1.36,1-1.84,1.79l-.24-.53c-.14,1,0,1.19-.71,2-.23.1-.44-.21-.1-.3-.82.28-.16.8-1.11,1.19l0-.51c-.67.5-.5.6-.59,1.21a1.56,1.56,0,0,1-1.74.59,1,1,0,0,1-.4,1.15c-.18-.1-.13-.31-.1-.41-1.28.67-1.08,1.89-2.15,2.14a.45.45,0,0,0-.35-.13,10.94,10.94,0,0,1,1.47-1.25c-.35-.38-1.07.17-1-.85-.28.79-.61,2.25-1.42,2.67a.84.84,0,0,1-.2-.05l0-.11a.8.8,0,0,0-.35.44,2.74,2.74,0,0,0-.64.39c-.37-.23-.92.53-1.25.84.42.37-.05.74.66.66-.08,0,0-.11.21-.33,0-.06.09-.12.1-.17v.05l.79-.78c-.06.45-.16.87-.75,1,.09.41.18.86.21,1.08-1-.11-2.09.46-2.55.25-.71,1.22-2.06,2.51-1.86,3.84-.16.37-.53.12-.75.12.07-.23.27-.42.24-.61a11.46,11.46,0,0,1-.82,1.24c-.26.43-.42.86-.2,1.17-.86.54-.17-.87-.92.25l-.06-.28a4.2,4.2,0,0,0-2,2.92,4.33,4.33,0,0,1-2.25,2.95c.19-.11.28-.16.4-.12a19.53,19.53,0,0,0-3,4.12,22.44,22.44,0,0,1-1.41,2.13,9.42,9.42,0,0,1-1.65,1.92c-.67.7-.32,1-.3,1.7l-.62-.13.09,1.19c-.23,1.44-2.58,1.29-2.5,3.34h.46c-.35.53-.68,1.88-1,1.58,0,.09.28.37,0,.49l-.29-.12-.21,1.62c-.75,1-1-.73-1.89.81-.19.64,0,2.05.3,1.92.13-.23.48-.51.77-.39l-.12.59c.8.49,1.47,1.28,2.7.3l-.07-1.13.55-.09-.35.76c.6-.24.39-.67.31-1.08a.75.75,0,0,0,.63-.15l-.35-1.26c.38.06.45.71.92.23-.16-.6-.93,0-.83-.78.6-.23.84.05.77-.61.25,0,.33.22.32.46,0-.57.48-1.22.16-1.68.68-.19.64-1.55,1.41-1.07a2.4,2.4,0,0,1,.05-1.49c.48,1.23.92-1.43,1.79-.67-.51-1,.77-2.1.88-3.31,0,.09.1.28,0,.33.38-.48.71-.48,1.06-.72a1.13,1.13,0,0,1-.38-1,5.81,5.81,0,0,0,0-1.1c1.07-.2.51.88,1.25,1.09-.55-.32.22-1.41-.37-1.5.72-.21.48-.28,1.18-.15-.75-.64.17-.53-.05-1.27.87-.4.87.36,1.15-.56C496.64,299.72,496.46,300.58,496.46,300.58Zm12.83-17.41h0l-.3.33Zm1.34-1.25a6.53,6.53,0,0,0-.6.53c-.18-.1-.26-.3-.12-.41C509.93,282.2,510.32,282,510.63,281.92Zm-5.57-.14c.17-.26.32-.25.43-.2a4.34,4.34,0,0,0-.34.41l0,.07A.82.82,0,0,1,505.06,281.78Z" transform="translate(-69 -141.48)"/><path class="cls-1" d="M505.19,282.67s0,.07-.06.11a.66.66,0,0,0,.21,0l0-.2Z" transform="translate(-69 -141.48)"/><path class="cls-1" d="M657.19,285.62l0,0a.17.17,0,0,1,0,.12A.31.31,0,0,0,657.19,285.62Z" transform="translate(-69 -141.48)"/><polygon class="cls-1" points="462.55 126.59 462.47 126.46 462.4 126.65 462.55 126.59"/><path class="cls-1" d="M662.61,294.48a.26.26,0,0,0,0,.19S662.61,294.57,662.61,294.48Z" transform="translate(-69 -141.48)"/><path class="cls-1" d="M665.26,298l.22.6A2.77,2.77,0,0,0,665.26,298Z" transform="translate(-69 -141.48)"/><path class="cls-1" d="M667.06,300.8a1.23,1.23,0,0,0,.24-.09h0Z" transform="translate(-69 -141.48)"/><path class="cls-1" d="M627.08,266.47a.28.28,0,0,0-.12,0C626.64,266.38,626.84,266.44,627.08,266.47Z" transform="translate(-69 -141.48)"/><path class="cls-1" d="M641.14,273.84a3.39,3.39,0,0,1-.57-.09C640.77,274,640.94,274.1,641.14,273.84Z" transform="translate(-69 -141.48)"/><path class="cls-1" d="M610.78,260.16h0l-.1,0Z" transform="translate(-69 -141.48)"/><path class="cls-1" d="M640,273.31a1.06,1.06,0,0,0,.59.44A1.35,1.35,0,0,0,640,273.31Z" transform="translate(-69 -141.48)"/><path class="cls-1" d="M674.73,313.09l.06.15a.15.15,0,0,1,.09,0Z" transform="translate(-69 -141.48)"/><path class="cls-1" d="M674.88,313.22l.14.12C675,313.27,675,313.21,674.88,313.22Z" transform="translate(-69 -141.48)"/><path class="cls-1" d="M675.33,313.6l-.31-.26C675.09,313.45,675.15,313.6,675.33,313.6Z" transform="translate(-69 -141.48)"/><path class="cls-1" d="M672.72,309.14l-.2.07A.4.4,0,0,0,672.72,309.14Z" transform="translate(-69 -141.48)"/><path class="cls-1" d="M672,308c.13.29.06.91.41,1.22l.16-.05C672.15,309.19,672.41,308.11,672,308Z" transform="translate(-69 -141.48)"/><path class="cls-1" d="M670.9,301.91l.53,1c.07-.29.16-.68.49-.27C671.63,301.11,671.7,303.2,670.9,301.91Z" transform="translate(-69 -141.48)"/><path class="cls-1" d="M669.06,298.83c.46.43.25-.2.37-.24C669,298.39,668.94,298.34,669.06,298.83Z" transform="translate(-69 -141.48)"/><path class="cls-1" d="M651.68,279.71l.39-.33C651.67,279.11,651.94,279.52,651.68,279.71Z" transform="translate(-69 -141.48)"/><polygon class="cls-1" points="577.26 137.02 577.4 137.56 577.87 137.35 577.26 137.02"/><polygon class="cls-1" points="577.29 132.37 577.5 132.45 576.76 132.09 577.29 132.37"/><path class="cls-1" d="M607.46,254l0,.64C607.77,254.63,608,254,607.46,254Z" transform="translate(-69 -141.48)"/><path class="cls-1" d="M588.75,251.36a.75.75,0,0,0-1-.3C588.12,251.14,588.53,251.42,588.75,251.36Z" transform="translate(-69 -141.48)"/><polygon class="cls-1" points="464.56 119.86 464.81 119.5 464.24 119.98 464.56 119.86"/><path class="cls-1" d="M485.06,379c-.21,0-.53.21-.29.48l.7-.07Z" transform="translate(-69 -141.48)"/><path class="cls-1" d="M485.07,381.63a1.3,1.3,0,0,0,1.61-.15c-.76-.06-.57-.27-1.44-.31a.44.44,0,0,1,.14-.71c-.2,0-.12-.55-.57-.53a1.14,1.14,0,0,0,.66,1.52C485.4,381.63,485.19,381.6,485.07,381.63Z" transform="translate(-69 -141.48)"/><path class="cls-1" d="M504.87,410.2l-.1-.21A.5.5,0,0,0,504.87,410.2Z" transform="translate(-69 -141.48)"/><path class="cls-1" d="M521,424.67c-.14-.08-.23-.07-.28,0C520.9,424.7,521,424.74,521,424.67Z" transform="translate(-69 -141.48)"/><path class="cls-1" d="M523.67,427.41l-.15-.16C523.55,427.34,523.6,427.42,523.67,427.41Z" transform="translate(-69 -141.48)"/><path class="cls-1" d="M504.87,410.2l.25.56C505.31,410.64,505,410.44,504.87,410.2Z" transform="translate(-69 -141.48)"/><path class="cls-1" d="M488.79,385a.73.73,0,0,0-.31-.17l.21.21Z" transform="translate(-69 -141.48)"/><path class="cls-1" d="M498,403.46l-.11-.13a1.22,1.22,0,0,0-.3.06Z" transform="translate(-69 -141.48)"/><path class="cls-1" d="M493.39,397.75c.08.15.56-.14.8-.24a.57.57,0,0,1-.53-.06A1.39,1.39,0,0,0,493.39,397.75Z" transform="translate(-69 -141.48)"/><path class="cls-1" d="M487.67,387.56l-.18-.13Z" transform="translate(-69 -141.48)"/><path class="cls-1" d="M501.43,407.51a.47.47,0,0,0-.1.18A.35.35,0,0,0,501.43,407.51Z" transform="translate(-69 -141.48)"/><path class="cls-1" d="M672.42,386.2l.09,0C672.48,386.18,672.46,386.15,672.42,386.2Z" transform="translate(-69 -141.48)"/><path class="cls-1" d="M678.74,380.06l0,.11a1.91,1.91,0,0,0,.27.16Z" transform="translate(-69 -141.48)"/><path class="cls-1" d="M529.1,431.69l0,0C528.89,431.62,529,431.67,529.1,431.69Z" transform="translate(-69 -141.48)"/><path class="cls-1" d="M589.85,445.41c-.75-.43,1.1-.75,0-1.2C590,444.42,588.94,445.17,589.85,445.41Z" transform="translate(-69 -141.48)"/><path class="cls-1" d="M488.82,385.19a2.07,2.07,0,0,1,.15.25A.78.78,0,0,0,488.82,385.19Z" transform="translate(-69 -141.48)"/><path class="cls-1" d="M589.84,444.21h0l-.11,0Z" transform="translate(-69 -141.48)"/><path class="cls-1" d="M543.46,438.42a.74.74,0,0,0-.05-.29A.44.44,0,0,0,543.46,438.42Z" transform="translate(-69 -141.48)"/><path class="cls-1" d="M533.17,432.68l.21.21A1,1,0,0,0,533.17,432.68Z" transform="translate(-69 -141.48)"/><path class="cls-1" d="M549.47,439.82c.13.09.16.18.39.17a.2.2,0,0,0,0-.08A.29.29,0,0,1,549.47,439.82Z" transform="translate(-69 -141.48)"/><path class="cls-1" d="M555.54,441.65a1.1,1.1,0,0,0-.09-.14l-.2,0Z" transform="translate(-69 -141.48)"/><path class="cls-1" d="M662.19,401.63a1.8,1.8,0,0,1,.57.1C662.39,401.55,662.84,400.77,662.19,401.63Z" transform="translate(-69 -141.48)"/><path class="cls-1" d="M488.52,385.16c.14-.05.23,0,.3,0s-.09-.11-.13-.16S488.54,385.09,488.52,385.16Z" transform="translate(-69 -141.48)"/><path class="cls-1" d="M551.12,435.69l.89.38A5,5,0,0,0,551.12,435.69Z" transform="translate(-69 -141.48)"/><path class="cls-1" d="M628.65,429.36l.16-.16A.23.23,0,0,0,628.65,429.36Z" transform="translate(-69 -141.48)"/><path class="cls-1" d="M554.77,436.84a1.38,1.38,0,0,0,.41.52.53.53,0,0,0,.15-.11Z" transform="translate(-69 -141.48)"/><path class="cls-1" d="M662.76,401.73Z" transform="translate(-69 -141.48)"/><path class="cls-1" d="M665.56,395.84c-.55.74.33.78.56,1.19-.47,1-.73.09-1.25.17-.24.68,0,1.52-.32,1.92-.12,0-.22,0-.27-.17,0,.93-1.34,1.69-1.3,2.81a.49.49,0,0,1-.22,0,2.37,2.37,0,0,1,.88.54c-.26.33-.14.89-.61.71.17-.19,0-.33,0-.52l-.12.48c-.79-.14.19-.62-.21-.94-.36.8-.55,1.94-1.12,2.32-.6-.33.8-1.33-.22-1.05l.84-.61c-1.31-.09.44-.42-.89-.61-1,.89-.67,1.37-1.65,2.25.09.48.48.29.58.77-.73,1.88-2.27,0-2.53,1.57.09.57.62,1.26-.39,1.66l-.33-.77c-.93.88.3,1.3-1,1.92,0-.39.51-.91.31-.83-1,.21-.11.74-.57,1.23l-.58-.37a44,44,0,0,1-2.64,3.56c-.08-.2,0-.53-.44-.44a10.57,10.57,0,0,1-2.17,2,14.76,14.76,0,0,1-2.53,1.52l-.17.89c-.13.1-.41,0-.34-.21-.7.27.21.31.08.7-.29.29-.63.07-.54-.22-.67,1.16-2.16,3.09-3.58,3.42l.1-.3c-1,.44-.25,1.65-1.36,1.76l.09-.19c-2,1.06-3.75,3-5.68,3.15.17.88-2.11.81-1.62,1.89-1.42.15-1.21-.22-3,.36-.44.2-.26,1-.72,1.42l-.31-.53c-.13.32-.25.66-.39,1l-.74-.46-.43.39c.22-.07.56,0,.61.21a2.17,2.17,0,0,1-2.27.29l-1.62,1.39c-.07-.24.21-.47.38-.74-.71,1.06-.46-.49-1.11.48.18.06.09.36.12.48a4.27,4.27,0,0,0-2.34.88l0-.45c-1.45.48-2.89,1.41-4.48,2.06a.51.51,0,0,1,.34.95l-.43-.53c-.15.5.58,0,.14.74-.63.17-.67-.53-.41-.87l-.64.51c-.11-.16,0-.33,0-.58-.15.51-1.46-.09-1.67.69l-.1-.17c-1.63.52-2.29,1-3.61,1.45.14.54-.41.59-.68,1.16-.52.07-1.08.09-1.66.15a8.57,8.57,0,0,0-1.78.25c-.77.48-.12.52-.42.94-.19-.48-1.38-.13-.85-.64a17.61,17.61,0,0,0-3.56,1.41c.24.16.49.19.41.39-.32.17-.81,0-.81-.27l.08-.08c-1.95,1.2-5.07-.62-6.54.73l.08-.07c-.55.28-1.09.58-1.65.83-.81,0,.43-.42-.2-.68-1.77,1-3,.15-4.45.86-.66-.7-1.71-.57-2.81-.38a5.55,5.55,0,0,1-3.09-.17l.11.35c-.41.35-.51-.2-.82-.27.05.27.46.31.2.51-3.55.53-7.31-.5-10.84-1.21-1.29-.23-.94,1.79-2.51.74l.55-.59a13.54,13.54,0,0,1-4.07-.19,15.53,15.53,0,0,0-4-.46c.19-.12.23-.31.48-.26-.45-.55-2-.45-2.09-.07-.38-.13,0-.37-.21-.62-.48-.4-1.5.29-1.67-.24,0-.09.19-.12.29-.13-.41.15-1.62-.45-1.42.17-.88-.52-1.88-.27-2.55-.79-.66.46-1.53-.74-1.94,0,.33-.84-1.42-1.22-2.15-1,.29-.2-.42-.44-.07-.72-.68-.2-1.34-.26-1.38.21-.85-1.47-2.78-.1-3-1.65a34.57,34.57,0,0,1-5.89-1.4c.44-.8,2,.81,2.26-.11-1.78-.39-3.06-.14-4.59-1.11-.36-.32.4-.22.61-.3-1.77-.5-3.08-1.63-4.71-2,0-.07.24-.07.42-.05-.29-.13-.58-.48-.75-.1l.33,0c.16.78-1.71.47-1.92.72,1.05-.76-1.25-1,.24-1.91-.22,0-.55,0-.64.26-.23-.22-.24-.4.19-.52-1.09-.38-1,.19-1.84-.35.1-.17.32-.12.53-.27a2.22,2.22,0,0,1-1.95-.48c.11-.07.1-.26.32-.12-1.32-.71-2.71-.53-3.89-1.73.89-.45-.31-.55,0-1.21l-.85-.33.08.51c-.62-.46-1.5-.42-1.9-1l.65.08-1.27-.73.51.71c-.87-.14-.49.82-1.22,0,.22.07-.62-.47-.68-1.07h0a1.5,1.5,0,0,1-1.27-.58c0-.28.6-.59.62-.77-.68.26-1.56-1-2.34-.75a.73.73,0,0,0,.48-.42l-.56.19c-.18-.35-.17-.45.07-.65-.78-.76-.33.95-1.07-.18.1,0,.11-.06.32,0-.87-1-2.14-1.34-2.87-2.32.22-.8.9.54,1-.2a24.26,24.26,0,0,0-2.29-1.36,8.4,8.4,0,0,1-2.07-1.56l.17.27c-.89.61-.56-1.21-1.5-1.44.2.08.6-.24.48-.19-.68-.93-1.86-1.41-3.3-2.42l.35,0a18.74,18.74,0,0,0-1.54-2c-.35,0-.6-.3-.72.16a3.65,3.65,0,0,0-1.94-2.59,3.57,3.57,0,0,1-1.88-2.37c.15.18.55.27.42.13-.43-.37-.86-.73-1.28-1.12-.27.4-.08.35-.12.86a1.49,1.49,0,0,1-1.08-.55c.72.39.56-.48.55-.9-.07.14-.26.15-.36.26.08-1.2-.81.48-1.15-.81l.23-.1c-.39-.27-.9-.4-1.14-.83.29-.49.49.23.85,0-.44-.52-1.63-.44-1.59-1.26.3.14.56.47.85.61a1.56,1.56,0,0,0-.32-1.34l0,.05-.48-1.09,0,.34c-1.63.16-1.24-1.24-2.66-1.63,1.37.39.51-.15,1.05-.43,0-.34-.14-.8.07-.8-.72-.16-.21-1-1.23-1.17.14-.14-.32-.49.16-.67-.53-.49-.19.33-.42.42-1.19-.51-.77-2.55-2.39-3.35-1.05-.93-1.73-.8-2.68-1.7,0-.52.79-.08.79-.08a2.44,2.44,0,0,0-.95-1.58c.22,0,.27-.16.36-.44-.31-.42-.79.06-.89-.67a2.55,2.55,0,0,1,.94.05c-.46-.44-1.09-.77-1.54-1.23.22-.32.63.07.93.16-.47-.54-1.15-1.45-1.73-1.38l.05.49c-.14-.22.34-.34.52-.22a.55.55,0,0,1,.11,1l-.33-.33c-.78,1,1.05,1.49,1.46,2.29l-.91.1,1.06.45c-.08.28-.41.64-.75.31,0,.78.55.35.45,1.07,0,.09-.08.08-.13.05l.55.41c-.22,0-.45.4-.55,0,.2,1.23,1.51,1.24,1.21,1.94l-.1-.05c1.11,1.18.6-.2,1.85.4l-.81,1.5.6-.2c.07.15.21.44,0,.53.69.28.17-.24.69-.16,0,1,1.46,1.64.76,2.34.54,0-.14-.82.6-.32-.71.8.7.71.74,1.56-.57.14-.74-.58-.7.28,1-.18.68,1.26,1.18,1.65.6-.41,1,.89,1.87,1.55-.23.09.85,1.78,1.27,2.67l-.11.06c.69-.32,1.21.52,1.78,1a.81.81,0,0,1-1,.1l.43.52a1.1,1.1,0,0,1,.86.33l-.53.23c.61.66,1.68.95,2.16,2.06.42-.29.47-1.63,1.52-.94-.18.21-.5.56-.79.4.09,0,.41.13.46.36l-.67-.06c.2.54.47,0,.72.29-.3.26,0,.42-.27.58-.1-.05-.13-.37-.35-.39a2,2,0,0,1,.39,1.32.44.44,0,0,1,.66-.14c.63.64-.14.55.07,1.08.35,0,.53.59,1,.19.18.2,0,.43,0,.61.52.16,1.57,1.51,1.66.7l-.05-.12.07,0h0c1.46.69,2,2.48,3.25,3.36l-.14.14c.79.47,1.55,1.28,2.31,1.4.2.18.22.69,0,.79.61.36.81.25,1.33,1.16-.74-.21,0,.39-.69-.29.54.74.5,1.09,1.58,1.32-.58.17.1.93.52,1.09l-.24-.68a5,5,0,0,1,1,.88l-.61.35c.9,1.83,3.45,1.05,3.69,3,.67-.06-.58-.88.1-1,.6.6.73,1.88.94,2.05.71,1,1.45-.12,2.27.82,0-.29.27-.87,1.14-.54.63.56.26,1.41-.29,1.26-.17-.1-.21-.22-.16-.28-.27-.09-.63-.22-.5.19l.23-.13c.2.44,1.17,1.1.72,1.25.66.19.45-.16.13-.53.7.9,1.38,1,2.19,1.82-.08-.21-.06-.53.09-.43,1.21,1.15.85,0,1.84.55.33.65-.67.6.44,1,.44.58-.22.61-.56.62,1.1.19,1.47,1.28,1.93,1.67l-.57-.13a2.58,2.58,0,0,1,.8.36l0-.56c.23.23.46.37.35.54.44-.1.2-.8,1-.83.24.42,1.23.44,1,1.06-1-.87-.19.62-1.21.12a1.36,1.36,0,0,1,.68.43c0,.09-.1.09-.19.08.82,1.13.87-.32,2,.34-.32.23-.07.74.16.78-.46-.27.07-.64.63-.64.6.65.9.27,1.27.51l-.38-.36c.32-.23.66,0,1.23.2-.09.27-.56-.08-.43.12.86-.25,1,1.25,2,1.29.27.41-.26.62,0,.93,1.13.05.77,1,1.93,1.07-.08-.56-.18-.48.71-.58-.58-.15-1.17-.28-1.74-.46.44,0,.88-.07,1.32-.13-.48-.22-1.14-.22-1.39-.44.66-.1.55,0,.5-.49.33,1,1.48.25,2,1l-.52,1.06c.94,1,2.29.43,3.69,1.31l-.41-.39c.39-.35,1,.33,1.53.36-.2.35.06.61.18.92.08-.28,1.1.5,1.53-.18l.5.74c1.18.66,1.82-.53,3,0-.5.27,0,.73-1,.72.4.16.74.36.83.1.15.33,1.3-.12,1.55.36.22-.11.41-.49.85-.31,0,.09-.06.18-.06.18.06-.18.79,0,.53-.56a3.06,3.06,0,0,0,2.18,1.26c.87.2,1.72.37,2.13,1,.93.13,2,.29,2.87.44-.08.1,0,.19-.19.11,1,.62,1-.94,2.14-.25.52.78-.75.18-.4.51-.1,1.31,1.59.2,2.32,1.09l-.23,0c.59.56,1.74-.18,2.81.11a.28.28,0,0,0,0,.2,8.12,8.12,0,0,1,3.39-.57c-.4.45-.52.2-.39.74.49,0,0-.84.94-.86.27.32.92.65,1,1.21l-.9-.09c.37.77,1.16.15,1.62.31l-.1.3c1.4,0,1.5-.75,3-.56l-.14-.25c.87-.7.65.5,1.49,0l.19.8a18.14,18.14,0,0,1,2.88-.78,8.11,8.11,0,0,1-2.42,1.12c.53,0,1.82,0,2.11-.35-.22.07-.5.25-.7.12a3.48,3.48,0,0,1,2.59-.8c-.22,1.54,2.74.35,3.52,1.52a6.84,6.84,0,0,1,2.85-.15l1.51.17a10.86,10.86,0,0,0,1.59-.08c-.86-1.12.64-.09.41-1.3.5-.13.7-.12.75-.05l1.6.59c.4.32-.46.31-.39.58,1.13,0,.52.47,1.3.72-.2-.42.33-.66,1-.55l-1-.48c1.49-.8,1.48.92,3,.09-.14.15-.29.31-.44.45.77-.34,3-.49,3.6-1.59.16.12.41.41.07.56,1.95-.21,4.07-1.68,5.64-1.52l-.08.32c.33-.17.49-.7,1-.51,0,.13-.07.32.1.3s.81-.74,1.31-.69l-.31.43c1.93-.08,2.61-1.48,4.07-2.08.24.85,1.74.66,2.49.56v.13c2.14-.6,3.35-1.85,5.14-2.85,1.51.42,4.1-1.25,6.2-1.53-.36,0-.23-.65.07-.87.52,0,.94-1.08,1.21-.32l-.16.06c.65.56,1.45-.07,2.15-.39l-.35-1a4.56,4.56,0,0,0,3.34-1.14,9.9,9.9,0,0,1,1.42-.87,1.48,1.48,0,0,1,1.25-.16c.28-.47.8-.77,1.08-1.25l.26.51a15.5,15.5,0,0,0,3.2-1.8l-.07.52c.82-.45.15-2,.86-2.45l.67.56c1.33-.93,3.11-1.26,4-2.8a.42.42,0,0,1,0,.52c.64-.41,2.79-1.23,1.87-2,.49.63,1.37-1,1.85-1.78l.23.53c.15-1,0-1.2.72-2,.24-.1.45.21.11.31.81-.28.16-.81,1.11-1.19l-.06.5c.68-.49.51-.59.6-1.2a1.57,1.57,0,0,1,1.75-.58,1,1,0,0,1,.41-1.15c.17.1.12.31.09.41,1.28-.66,1.09-1.89,2.17-2.13a.44.44,0,0,0,.34.14,14.69,14.69,0,0,1-1.47,1.24c.34.38,1.07-.17,1,.85.28-.78.62-2.24,1.43-2.66a1,1,0,0,1,.21,0l0,.11a.8.8,0,0,0,.35-.44,2.36,2.36,0,0,0,.64-.38c.37.23.93-.53,1.27-.84-.43-.37,0-.73-.66-.66.07,0,0,.11-.21.33a.62.62,0,0,0-.1.17v-.06l-.8.78c.06-.44.17-.86.75-1-.08-.41-.17-.86-.2-1.09,1,.12,2.09-.44,2.55-.23.71-1.21,2.07-2.5,1.88-3.83.16-.37.53-.12.75-.11-.07.23-.27.41-.24.6a11.4,11.4,0,0,1,.82-1.23c.27-.43.43-.86.21-1.17.87-.54.16.87.92-.25l.06.29a4.23,4.23,0,0,0,2-2.91,4.31,4.31,0,0,1,2.27-2.95c-.19.11-.29.17-.41.13a19.81,19.81,0,0,0,3-4.11,23.82,23.82,0,0,1,1.43-2.12,9.43,9.43,0,0,1,1.66-1.92c.66-.69.32-1,.31-1.69l.62.14-.09-1.2c.24-1.44,2.59-1.27,2.51-3.33h-.46c.36-.52.7-1.88,1.07-1.57,0-.09-.28-.38,0-.5l.28.13.23-1.62c.75-1,1,.74,1.89-.8.19-.64,0-2.05-.28-1.92-.14.22-.49.51-.78.39l.12-.6c-.79-.49-1.46-1.28-2.69-.31l.06,1.13-.55.08.35-.75c-.59.24-.39.66-.32,1.08a.79.79,0,0,0-.63.14l.35,1.27c-.38-.07-.44-.72-.92-.23.16.59.93,0,.82.78-.59.23-.83-.06-.77.6-.24,0-.32-.22-.32-.46,0,.57-.49,1.22-.17,1.68-.68.19-.64,1.55-1.41,1.06a2.51,2.51,0,0,1,0,1.5c-.49-1.24-.94,1.42-1.8.65.5,1-.78,2.1-.9,3.31,0-.1-.1-.28,0-.34-.38.48-.71.48-1.06.72a1.17,1.17,0,0,1,.38,1,6.87,6.87,0,0,0,0,1.1c-1.06.2-.5-.88-1.24-1.09.55.32-.22,1.41.36,1.5-.72.21-.47.28-1.18.15.75.64-.17.53,0,1.26-.87.4-.87-.36-1.15.55C665.38,396.7,665.56,395.84,665.56,395.84Zm-12.93,17.34h0l.31-.32Zm-1.34,1.25c.18-.14.39-.32.6-.52.18.1.26.29.12.41C652,414.15,651.6,414.36,651.29,414.43Zm5.57.17c-.17.26-.32.25-.43.19a3.14,3.14,0,0,0,.34-.4l0-.07A.82.82,0,0,1,656.86,414.6Z" transform="translate(-69 -141.48)"/><path class="cls-1" d="M656.74,413.71a.3.3,0,0,1,.06-.11.78.78,0,0,0-.22,0l0,.19Z" transform="translate(-69 -141.48)"/><path class="cls-1" d="M504.75,410l0,0a.24.24,0,0,1,0-.12S504.75,409.92,504.75,410Z" transform="translate(-69 -141.48)"/><polygon class="cls-1" points="561.3 286.7 561.37 286.82 561.45 286.63 561.3 286.7"/><path class="cls-1" d="M499.38,401.06a.27.27,0,0,0,0-.19S499.38,401,499.38,401.06Z" transform="translate(-69 -141.48)"/><path class="cls-1" d="M496.75,397.57l-.22-.61A2.89,2.89,0,0,0,496.75,397.57Z" transform="translate(-69 -141.48)"/><path class="cls-1" d="M495,394.72a.93.93,0,0,0-.24.09h0Z" transform="translate(-69 -141.48)"/><path class="cls-1" d="M534.76,429.26l.12,0C535.2,429.35,535,429.29,534.76,429.26Z" transform="translate(-69 -141.48)"/><path class="cls-1" d="M520.74,421.81a2.61,2.61,0,0,1,.57.1C521.11,421.7,520.94,421.56,520.74,421.81Z" transform="translate(-69 -141.48)"/><path class="cls-1" d="M551,435.65h0l.1,0Z" transform="translate(-69 -141.48)"/><path class="cls-1" d="M521.9,422.35a1.06,1.06,0,0,0-.59-.44A1.3,1.3,0,0,0,521.9,422.35Z" transform="translate(-69 -141.48)"/><path class="cls-1" d="M487.36,382.38l-.06-.15-.09,0Z" transform="translate(-69 -141.48)"/><path class="cls-1" d="M487.21,382.26l-.15-.13C487.1,382.21,487.14,382.27,487.21,382.26Z" transform="translate(-69 -141.48)"/><path class="cls-1" d="M486.76,381.87l.3.26C487,382,486.94,381.87,486.76,381.87Z" transform="translate(-69 -141.48)"/><path class="cls-1" d="M489.35,386.34l.2-.06A.49.49,0,0,0,489.35,386.34Z" transform="translate(-69 -141.48)"/><path class="cls-1" d="M490.11,387.45c-.13-.29-.06-.91-.4-1.22l-.16,0C489.92,386.3,489.66,387.38,490.11,387.45Z" transform="translate(-69 -141.48)"/><path class="cls-1" d="M491.13,393.58l-.52-1c-.07.29-.17.67-.5.26C490.4,394.38,490.34,392.3,491.13,393.58Z" transform="translate(-69 -141.48)"/><path class="cls-1" d="M493,396.68c-.45-.44-.25.19-.37.24C493,397.12,493.07,397.16,493,396.68Z" transform="translate(-69 -141.48)"/><path class="cls-1" d="M510.23,415.88l-.39.34C510.24,416.49,510,416.08,510.23,415.88Z" transform="translate(-69 -141.48)"/><polygon class="cls-1" points="446.65 275.65 446.51 275.11 446.04 275.32 446.65 275.65"/><polygon class="cls-1" points="446.58 280.3 446.38 280.23 447.12 280.59 446.58 280.3"/><path class="cls-1" d="M554.31,441.83l0-.65C554,441.2,553.74,441.87,554.31,441.83Z" transform="translate(-69 -141.48)"/><path class="cls-1" d="M573,444.57a.74.74,0,0,0,1,.3C573.63,444.79,573.23,444.51,573,444.57Z" transform="translate(-69 -141.48)"/><polygon class="cls-1" points="559.25 293.41 559 293.77 559.57 293.3 559.25 293.41"/></g><g id="Layer_1" data-name="Layer 1"><text x="-69" y="-141.48"></text><text class="cls-2" transform="translate(0 256.32)">Baking</text><text class="cls-3" transform="translate(622 245.4)">Society</text><path class="cls-4" d="M641.13,350.12,630.58,409h0L535,391.82h0a11.21,11.21,0,0,1-9.06-13L534.47,331h0l106.66,19.13Z" transform="translate(-69 -141.48)"/><path id="SVGCleanerId_0" data-name="SVGCleanerId 0" class="cls-5" d="M639.15,361.15l-6.59,36.79h0l-90.12-16.16a5.61,5.61,0,0,1-4.52-6.51l4.61-25.75A5.61,5.61,0,0,1,549,345l90.11,16.16Z" transform="translate(-69 -141.48)"/><path id="SVGCleanerId_0-2" data-name="SVGCleanerId 0" class="cls-5" d="M639.15,361.15l-6.59,36.79h0l-90.12-16.16a5.61,5.61,0,0,1-4.52-6.51l4.61-25.75A5.61,5.61,0,0,1,549,345l90.11,16.16Z" transform="translate(-69 -141.48)"/><path class="cls-6" d="M641.13,350.12,534.47,331l0-.17A43.15,43.15,0,0,1,583.69,300h0l57.44,50.16Z" transform="translate(-69 -141.48)"/><circle class="cls-7" cx="492.81" cy="164.05" r="11.21"/><path class="cls-8" d="M553.19,298.35a11.21,11.21,0,0,0,17.2,14.38A15.8,15.8,0,0,1,558,295,11.2,11.2,0,0,0,553.19,298.35Z" transform="translate(-69 -141.48)"/><path class="cls-9" d="M550.07,286.33l.66-3.67a16.83,16.83,0,0,1,13.58,19.52l-3.68-.66A13.1,13.1,0,0,0,550.07,286.33Z" transform="translate(-69 -141.48)"/><rect class="cls-9" x="576.99" y="308.05" width="7.93" height="3.74" transform="translate(-141.92 245.89) rotate(-34.83)"/><rect class="cls-9" x="597.34" y="320.61" width="3.74" height="7.93" transform="translate(-147.03 258.94) rotate(-34.83)"/><rect class="cls-9" x="586.57" y="328.75" width="7.93" height="3.74" transform="translate(-152.03 255.07) rotate(-34.83)"/><rect class="cls-9" x="580.79" y="317.64" width="3.74" height="7.93" transform="translate(-148.29 248.95) rotate(-34.83)"/><rect class="cls-9" x="548.2" y="319.38" width="3.74" height="7.93" transform="translate(-155.13 230.65) rotate(-34.83)"/><rect class="cls-9" x="568.43" y="323.01" width="3.74" height="7.93" transform="translate(-153.58 242.86) rotate(-34.83)"/><rect class="cls-9" x="608.89" y="330.27" width="3.74" height="7.93" transform="translate(-150.47 267.27) rotate(-34.83)"/><path class="cls-10" d="M560.89,335.73,534.47,331l-8.58,47.82h0a11.21,11.21,0,0,0,9.06,13l83.53,15-10.8-13.33-65.24-11.7a5.59,5.59,0,0,1-4.52-6.5l4.61-25.75A5.61,5.61,0,0,1,549,345l22.65,4.07Z" transform="translate(-69 -141.48)"/><path class="cls-11" d="M607.68,393.47l-36-44.41L549,345a5.61,5.61,0,0,0-6.51,4.53l-4.61,25.75a5.61,5.61,0,0,0,4.52,6.51Z" transform="translate(-69 -141.48)"/><rect class="cls-12" x="586.17" y="322.39" width="3.74" height="97.16" transform="translate(50.09 742.82) rotate(-79.83)"/><path d="M532.71,330.47a1.54,1.54,0,0,0-.08.19l-8.58,47.82a13.1,13.1,0,0,0,10.57,15.18l95.63,17.15a1.87,1.87,0,0,0,2.16-1.51L643,350.45v0a1.94,1.94,0,0,0,0-.68s0-.07,0-.12a1.8,1.8,0,0,0-.22-.49.93.93,0,0,0-.16-.18,1.3,1.3,0,0,0-.18-.23l-57.44-50.16a1.89,1.89,0,0,0-.9-.43,45.09,45.09,0,0,0-11.83-.52,13,13,0,0,0-8.07-5c-.31-.06-.62-.08-.94-.12a16.78,16.78,0,0,0-12.45-9.87l-.66,3.67a13,13,0,0,1,9,6.4,13,13,0,0,0-10.32,13.9,44.64,44.64,0,0,0-16.07,23.69A.76.76,0,0,0,532.71,330.47Zm38.34-26.19a9.34,9.34,0,1,1-10.54-8,13,13,0,0,1,.12,5.2l3.68.66a16.71,16.71,0,0,0,0-5.6A9.37,9.37,0,0,1,571.05,304.28Zm63.77,42.81-98-17.57a40.91,40.91,0,0,1,12.92-18.89,13.06,13.06,0,0,0,24.35-9.44,41.06,41.06,0,0,1,8.72.52Zm-3.77,48.68-88.28-15.83a3.73,3.73,0,0,1-3-4.34l2-11,92,16.49Zm-86.68-45.92a3.75,3.75,0,0,1,4.34-3L637,362.66l-2.63,14.72-92-16.49ZM536,333.16l103,18.47L637.64,359l-88.27-15.83a7.48,7.48,0,0,0-8.68,6l-4.61,25.75a7.46,7.46,0,0,0,6,8.67l88.28,15.83-1.32,7.36L535.28,390a9.35,9.35,0,0,1-7.55-10.84Z" transform="translate(-69 -141.48)"/><rect x="576.99" y="308.05" width="7.93" height="3.74" transform="translate(-141.92 245.89) rotate(-34.83)"/><rect x="597.34" y="320.61" width="3.74" height="7.93" transform="translate(-147.03 258.94) rotate(-34.83)"/><rect x="586.57" y="328.75" width="7.93" height="3.74" transform="translate(-152.03 255.07) rotate(-34.83)"/><rect x="580.79" y="317.64" width="3.74" height="7.93" transform="translate(-148.29 248.95) rotate(-34.83)"/><rect x="548.2" y="319.38" width="3.74" height="7.93" transform="translate(-155.13 230.65) rotate(-34.83)"/><rect x="568.43" y="323.01" width="3.74" height="7.93" transform="translate(-153.58 242.86) rotate(-34.83)"/><rect x="608.89" y="330.27" width="3.74" height="7.93" transform="translate(-150.47 267.27) rotate(-34.83)"/></g></svg>