<?xml version="1.0" encoding="utf-8"?>
<!-- Generator: Adobe Illustrator 22.1.0, SVG Export Plug-In . SVG Version: 6.00 Build 0)  -->
<svg version="1.1" id="Layer_1" xmlns="http://www.w3.org/2000/svg" xmlns:xlink="http://www.w3.org/1999/xlink" x="0px" y="0px"
	 viewBox="0 0 1366 768" style="enable-background:new 0 0 1366 768;" xml:space="preserve">
<style type="text/css">
	.st0{fill:#F0DBC2;}
	.st1{fill:#F2B9B8;}
	.st2{fill:#F29C9B;}
	.st3{fill:#F0614A;}
	.st4{fill:#EA5242;}
	.st5{fill:#965735;}
	.st6{fill:#EBD3B7;}
	.st7{fill:#F2AEAC;}
	.st8{fill:#F28685;}
</style>
<g>
	<path class="st0" d="M741.1,387.1L730.6,446l0,0l-95.6-17.2l0,0c-6.1-1.1-10.1-6.9-9.1-13l8.6-47.8l0,0L741.1,387.1L741.1,387.1z"
		/>
	<path id="SVGCleanerId_0_3_" class="st1" d="M739.2,398.2l-6.6,36.8l0,0l-90.1-16.2c-3-0.5-5.1-3.5-4.5-6.5l4.6-25.7
		c0.5-3,3.5-5.1,6.5-4.5L739.2,398.2L739.2,398.2z"/>
	<g>
		<path id="SVGCleanerId_0_2_" class="st1" d="M739.2,398.2l-6.6,36.8l0,0l-90.1-16.2c-3-0.5-5.1-3.5-4.5-6.5l4.6-25.7
			c0.5-3,3.5-5.1,6.5-4.5L739.2,398.2L739.2,398.2z"/>
	</g>
	<path class="st2" d="M741.1,387.1L634.5,368l0-0.2c6-21.4,27.3-34.8,49.2-30.9l0,0L741.1,387.1L741.1,387.1z"/>
	<circle class="st3" cx="661.8" cy="342.5" r="11.2"/>
	<path class="st4" d="M653.2,335.3c-4,4.7-3.3,11.8,1.4,15.8c4.7,4,11.8,3.3,15.8-1.4c-8.2-1.7-13.6-9.5-12.4-17.8
		C656.1,332.6,654.5,333.8,653.2,335.3z"/>
	<g>
		<path class="st5" d="M650.1,323.3l0.7-3.7c9.1,1.6,15.2,10.4,13.6,19.5l-3.7-0.7C661.9,331.4,657.2,324.6,650.1,323.3z"/>
		
			<rect x="677" y="345" transform="matrix(0.8208 -0.5712 0.5712 0.8208 -76.1388 451.1112)" class="st5" width="7.9" height="3.7"/>
		
			<rect x="697.3" y="357.6" transform="matrix(0.8208 -0.5712 0.5712 0.8208 -81.2437 464.1624)" class="st5" width="3.7" height="7.9"/>
		
			<rect x="686.6" y="365.7" transform="matrix(0.8208 -0.5712 0.5712 0.8208 -86.247 460.2891)" class="st5" width="7.9" height="3.7"/>
		
			<rect x="680.8" y="354.6" transform="matrix(0.8208 -0.5712 0.5712 0.8208 -82.5095 454.1761)" class="st5" width="3.7" height="7.9"/>
		
			<rect x="648.2" y="356.4" transform="matrix(0.8208 -0.5712 0.5712 0.8208 -89.3455 435.8763)" class="st5" width="3.7" height="7.9"/>
		
			<rect x="668.4" y="360" transform="matrix(0.8208 -0.5712 0.5712 0.8208 -87.7927 448.0816)" class="st5" width="3.7" height="7.9"/>
		
			<rect x="708.9" y="367.3" transform="matrix(0.8208 -0.5712 0.5712 0.8208 -84.6897 472.4922)" class="st5" width="3.7" height="7.9"/>
	</g>
	<path class="st6" d="M660.9,372.7l-26.4-4.7l-8.6,47.8l0,0c-1.1,6.1,3,11.9,9.1,13l83.5,15l-10.8-13.3l-65.2-11.7
		c-3-0.5-5.1-3.5-4.5-6.5l4.6-25.7c0.5-3,3.5-5.1,6.5-4.5l22.6,4.1L660.9,372.7z"/>
	<path class="st7" d="M707.7,430.5l-36-44.4L649,382c-3-0.5-6,1.5-6.5,4.5l-4.6,25.7c-0.5,3,1.5,6,4.5,6.5L707.7,430.5z"/>
	
		<rect x="686.2" y="359.4" transform="matrix(0.1765 -0.9843 0.9843 0.1765 165.0231 1013.1908)" class="st8" width="3.7" height="97.2"/>
	<path d="M632.7,367.5c0,0.1-0.1,0.1-0.1,0.2l-8.6,47.8c-1.3,7.1,3.5,13.9,10.6,15.2l95.6,17.1c1,0.2,2-0.5,2.2-1.5l10.6-58.8
		c0,0,0,0,0,0c0-0.2,0-0.5,0-0.7c0,0,0-0.1,0-0.1c0-0.2-0.1-0.3-0.2-0.5c0-0.1-0.1-0.1-0.2-0.2c-0.1-0.1-0.1-0.2-0.2-0.2l-57.4-50.2
		c-0.3-0.2-0.6-0.4-0.9-0.4c-3.9-0.7-7.9-0.9-11.8-0.5c-2-2.6-4.9-4.4-8.1-5c-0.3-0.1-0.6-0.1-0.9-0.1c-2.2-5.2-6.9-8.9-12.5-9.9
		l-0.7,3.7c3.8,0.7,7.1,3,9,6.4c-6.5,1.3-10.9,7.3-10.3,13.9c-7.8,5.9-13.5,14.2-16.1,23.7C632.7,367.4,632.7,367.4,632.7,367.5z
		 M671.1,341.3c0.7,5.1-2.9,9.8-8,10.5c-5.1,0.7-9.8-2.9-10.5-8c-0.7-5.1,2.9-9.8,8-10.5c0.4,1.7,0.4,3.5,0.1,5.2l3.7,0.7
		c0.3-1.8,0.3-3.7,0-5.6C667.9,334.6,670.5,337.6,671.1,341.3z M734.8,384.1l-98-17.6c2.4-7.4,6.9-14,12.9-18.9
		c2.7,6.4,9.9,9.6,16.4,7.2c6.8-2.4,10.4-9.9,7.9-16.7c2.9-0.1,5.8,0,8.7,0.5L734.8,384.1z M731,432.8l-88.3-15.8
		c-2-0.4-3.4-2.3-3-4.3l2-11l92,16.5C733.7,418.1,731,432.8,731,432.8z M644.4,386.9c0.4-2,2.3-3.4,4.3-3l88.3,15.8l-2.6,14.7
		l-92-16.5L644.4,386.9z M636,370.2l103,18.5l-1.3,7.4l-88.3-15.8c-4.1-0.7-7.9,2-8.7,6l-4.6,25.7c-0.7,4.1,2,7.9,6,8.7l88.3,15.8
		l-1.3,7.4L635.3,427c-5.1-0.9-8.5-5.8-7.5-10.8L636,370.2z"/>
	<rect x="677" y="345" transform="matrix(0.8208 -0.5712 0.5712 0.8208 -76.1388 451.1112)" width="7.9" height="3.7"/>
	<rect x="697.3" y="357.6" transform="matrix(0.8208 -0.5712 0.5712 0.8208 -81.2437 464.1624)" width="3.7" height="7.9"/>
	<rect x="686.6" y="365.7" transform="matrix(0.8208 -0.5712 0.5712 0.8208 -86.247 460.2891)" width="7.9" height="3.7"/>
	<rect x="680.8" y="354.6" transform="matrix(0.8208 -0.5712 0.5712 0.8208 -82.5095 454.1761)" width="3.7" height="7.9"/>
	<rect x="648.2" y="356.4" transform="matrix(0.8208 -0.5712 0.5712 0.8208 -89.3455 435.8763)" width="3.7" height="7.9"/>
	<rect x="668.4" y="360" transform="matrix(0.8208 -0.5712 0.5712 0.8208 -87.7927 448.0816)" width="3.7" height="7.9"/>
	<rect x="708.9" y="367.3" transform="matrix(0.8208 -0.5712 0.5712 0.8208 -84.6897 472.4922)" width="3.7" height="7.9"/>
</g>
</svg>
